<?xml version="1.0" encoding="UTF-8" standalone="no"?>
<!DOCTYPE svg PUBLIC "-//W3C//DTD SVG 1.1//EN"
 "http://www.w3.org/Graphics/SVG/1.1/DTD/svg11.dtd">
<!-- Generated by graphviz version 7.0.0 (20221023.0053)
 -->
<!-- Title: snakemake_dag Pages: 1 -->
<svg width="137pt" height="188pt"
 viewBox="0.00 0.00 137.00 188.00" xmlns="http://www.w3.org/2000/svg" xmlns:xlink="http://www.w3.org/1999/xlink">
<g id="graph0" class="graph" transform="scale(1 1) rotate(0) translate(4 184)">
<title>snakemake_dag</title>
<polygon fill="white" stroke="none" points="-4,4 -4,-184 133,-184 133,4 -4,4"/>
<!-- 0 -->
<g id="node1" class="node">
<title>0</title>
<path fill="none" stroke="#d6d856" stroke-width="2" d="M79,-36C79,-36 49,-36 49,-36 43,-36 37,-30 37,-24 37,-24 37,-12 37,-12 37,-6 43,0 49,0 49,0 79,0 79,0 85,0 91,-6 91,-12 91,-12 91,-24 91,-24 91,-30 85,-36 79,-36"/>
<text text-anchor="middle" x="64" y="-15.5" font-family="sans" font-size="10.00">all</text>
</g>
<!-- 1 -->
<g id="node2" class="node">
<title>1</title>
<path fill="none" stroke="#56d8d8" stroke-width="2" d="M44,-108C44,-108 12,-108 12,-108 6,-108 0,-102 0,-96 0,-96 0,-84 0,-84 0,-78 6,-72 12,-72 12,-72 44,-72 44,-72 50,-72 56,-78 56,-84 56,-84 56,-96 56,-96 56,-102 50,-108 44,-108"/>
<text text-anchor="middle" x="28" y="-87.5" font-family="sans" font-size="10.00">rulegraph</text>
</g>
<!-- 1&#45;&gt;0 -->
<g id="edge2" class="edge">
<title>1&#45;&gt;0</title>
<path fill="none" stroke="grey" stroke-width="2" d="M37.08,-71.34C40.68,-64.34 44.91,-56.12 48.94,-48.28"/>
<polygon fill="grey" stroke="grey" stroke-width="2" points="51.95,-50.09 53.41,-39.59 45.72,-46.89 51.95,-50.09"/>
</g>
<!-- 2 -->
<g id="node3" class="node">
<title>2</title>
<path fill="none" stroke="#59d856" stroke-width="2" d="M116,-108C116,-108 86,-108 86,-108 80,-108 74,-102 74,-96 74,-96 74,-84 74,-84 74,-78 80,-72 86,-72 86,-72 116,-72 116,-72 122,-72 128,-78 128,-84 128,-84 128,-96 128,-96 128,-102 122,-108 116,-108"/>
<text text-anchor="middle" x="101" y="-87.5" font-family="sans" font-size="10.00">plot</text>
</g>
<!-- 2&#45;&gt;0 -->
<g id="edge1" class="edge">
<title>2&#45;&gt;0</title>
<path fill="none" stroke="grey" stroke-width="2" d="M91.66,-71.34C87.97,-64.34 83.62,-56.12 79.48,-48.28"/>
<polygon fill="grey" stroke="grey" stroke-width="2" points="82.64,-46.78 74.88,-39.58 76.46,-50.05 82.64,-46.78"/>
</g>
<!-- 3 -->
<g id="node4" class="node">
<title>3</title>
<path fill="none" stroke="#d85656" stroke-width="2" d="M117,-180C117,-180 85,-180 85,-180 79,-180 73,-174 73,-168 73,-168 73,-156 73,-156 73,-150 79,-144 85,-144 85,-144 117,-144 117,-144 123,-144 129,-150 129,-156 129,-156 129,-168 129,-168 129,-174 123,-180 117,-180"/>
<text text-anchor="middle" x="101" y="-159.5" font-family="sans" font-size="10.00">gen_data</text>
</g>
<!-- 3&#45;&gt;2 -->
<g id="edge3" class="edge">
<title>3&#45;&gt;2</title>
<path fill="none" stroke="grey" stroke-width="2" d="M101,-143.34C101,-136.75 101,-129.08 101,-121.67"/>
<polygon fill="grey" stroke="grey" stroke-width="2" points="104.5,-121.93 101,-111.93 97.5,-121.93 104.5,-121.93"/>
</g>
</g>
</svg>
